<svg xmlns="http://www.w3.org/2000/svg" width="120" height="30" viewBox="0 0 120 30">
  <g id="Logo_IC-Banking" data-name="Logo IC-Banking" transform="translate(45.724 -134.196)">
    <path id="Placeholder_logo" data-name="Placeholder logo" d="M0,0H120V30H0Z" transform="translate(-45.724 134.196)" fill="none"/>
    <g id="Grupo_2347" data-name="Grupo 2347" transform="translate(-16.778 142.937)">
      <path id="Trazado_1543" data-name="Trazado 1543" d="M50.548,165.844v-12.1h2.662v12.1Z" transform="translate(-50.548 -153.532)" fill="#0093df"/>
      <path id="Trazado_1544" data-name="Trazado 1544" d="M70.545,165.5a6.1,6.1,0,0,1-6.2-6.221v-.034a6.148,6.148,0,0,1,6.307-6.256,6.245,6.245,0,0,1,4.771,1.866l-1.694,1.953a4.464,4.464,0,0,0-3.093-1.365,3.584,3.584,0,0,0-3.508,3.767v.034a3.593,3.593,0,0,0,3.508,3.8,4.366,4.366,0,0,0,3.179-1.417l1.693,1.711A6.183,6.183,0,0,1,70.545,165.5Z" transform="translate(-60.561 -152.98)" fill="#0093df"/>
    </g>
    <g id="Grupo_2348" data-name="Grupo 2348" transform="translate(-0.174 143.126)">
      <path id="Trazado_1545" data-name="Trazado 1545" d="M119.961,157.343a2.839,2.839,0,0,1-1.861,2.733c1.391.421,2.515,1.224,2.515,2.85,0,2.029-1.693,3.219-4.259,3.219h-5.214V154.409h5C118.451,154.409,119.961,155.549,119.961,157.343Zm-1.342.185c0-1.174-.922-1.928-2.6-1.928h-3.577v4.04h3.471c1.6,0,2.7-.721,2.7-2.113Zm.654,5.315c0-1.291-1.073-2.029-3.118-2.029h-3.709v4.14h3.94c1.781,0,2.887-.787,2.887-2.111Z" transform="translate(-111.142 -154.201)" fill="#7d8a9d"/>
      <path id="Trazado_1546" data-name="Trazado 1546" d="M156.571,165.924h-1.425l-1.375-3.1h-6.385l-1.391,3.1h-1.358l5.348-11.821h1.241Zm-5.985-10.278-2.683,5.985h5.348Z" transform="translate(-135.457 -153.979)" fill="#7d8a9d"/>
      <path id="Trazado_1547" data-name="Trazado 1547" d="M198.9,154.409h1.291v11.736h-1.058l-7.578-9.624v9.624H190.26V154.409H191.5l7.394,9.4Z" transform="translate(-168.581 -154.201)" fill="#7d8a9d"/>
      <path id="Trazado_1548" data-name="Trazado 1548" d="M243,166.145h-1.66l-4.51-5.684-2.5,2.532v3.152h-1.325V154.409h1.325v7.011l6.74-7.008h1.71l-5.03,5.131Z" transform="translate(-199.613 -154.201)" fill="#7d8a9d"/>
      <path id="Trazado_1549" data-name="Trazado 1549" d="M272.6,154.409v11.736H271.28V154.409Z" transform="translate(-227.4 -154.201)" fill="#7d8a9d"/>
      <path id="Trazado_1550" data-name="Trazado 1550" d="M291.336,154.409h1.291v11.736h-1.056l-7.578-9.624v9.624H282.7V154.409h1.241l7.394,9.4Z" transform="translate(-235.691 -154.201)" fill="#7d8a9d"/>
      <path id="Trazado_1551" data-name="Trazado 1551" d="M329.21,165.811a5.759,5.759,0,0,1-5.969-6.053,5.894,5.894,0,0,1,5.885-6.086,6.184,6.184,0,0,1,4.376,1.559l-.855,1.006a4.993,4.993,0,0,0-3.571-1.342,4.591,4.591,0,0,0-4.46,4.829c0,2.817,1.794,4.9,4.644,4.9a5.527,5.527,0,0,0,3.387-1.174v-2.918h-3.571v-1.193h4.845v4.677A7.111,7.111,0,0,1,329.21,165.811Z" transform="translate(-265.122 -153.666)" fill="#7d8a9d"/>
    </g>
    <path id="Trazado_1552" data-name="Trazado 1552" d="M-29.339,157.823a1.171,1.171,0,0,1-.624-.18c-.269-.168-6.607-4.186-8.78-9.088a9.436,9.436,0,0,1-.07-8.241,5.792,5.792,0,0,1,4.261-3.037,5.941,5.941,0,0,1,5.215,1.575,5.938,5.938,0,0,1,5.214-1.575,5.792,5.792,0,0,1,4.261,3.037,9.452,9.452,0,0,1-.07,8.241c-2.175,4.9-8.51,8.92-8.779,9.088a1.172,1.172,0,0,1-.629.18Zm-4.218-18.27a4.333,4.333,0,0,0-.639.043,3.465,3.465,0,0,0-2.56,1.843A7.121,7.121,0,0,0-36.6,147.6c1.516,3.421,5.672,6.536,7.257,7.632,1.584-1.1,5.741-4.21,7.256-7.632a7.118,7.118,0,0,0,.159-6.165,3.465,3.465,0,0,0-2.556-1.844c-.281-.043-2.776-.366-3.8,1.706a1.183,1.183,0,0,1-1.053.66h-.012a1.172,1.172,0,0,1-1.053-.671,3.342,3.342,0,0,0-3.162-1.739Z" transform="translate(-1.79 1.426)" fill="#0093df"/>
  </g>
</svg>
